<?xml version="1.0" encoding="UTF-8" standalone="no"?>
<!DOCTYPE svg PUBLIC "-//W3C//DTD SVG 1.1//EN"
 "http://www.w3.org/Graphics/SVG/1.1/DTD/svg11.dtd">
<!-- Generated by graphviz version 13.1.2 (20250808.2320)
 -->
<!-- Title: live Pages: 1 -->
<svg width="653pt" height="1277pt"
 viewBox="0.00 0.00 653.00 1277.00" xmlns="http://www.w3.org/2000/svg" xmlns:xlink="http://www.w3.org/1999/xlink">
<g id="graph0" class="graph" transform="scale(1 1) rotate(0) translate(4 1272.5)">
<title>live</title>
<polygon fill="white" stroke="none" points="-4,4 -4,-1272.5 649.25,-1272.5 649.25,4 -4,4"/>
<text xml:space="preserve" text-anchor="middle" x="322.62" y="-1249.3" font-family="Segoe UI" font-size="16.00">AI Behavior — Live message pipeline</text>
<!-- msg -->
<g id="node1" class="node">
<title>msg</title>
<ellipse fill="#cfe8ff" stroke="black" cx="260" cy="-1220" rx="69.38" ry="18"/>
<text xml:space="preserve" text-anchor="middle" x="260" y="-1217.05" font-family="Segoe UI" font-size="11.00">Telegram message</text>
</g>
<!-- store -->
<g id="node2" class="node">
<title>store</title>
<path fill="#eef2f5" stroke="black" d="M297.25,-1165C297.25,-1165 222.75,-1165 222.75,-1165 216.75,-1165 210.75,-1159 210.75,-1153 210.75,-1153 210.75,-1139 210.75,-1139 210.75,-1133 216.75,-1127 222.75,-1127 222.75,-1127 297.25,-1127 297.25,-1127 303.25,-1127 309.25,-1133 309.25,-1139 309.25,-1139 309.25,-1153 309.25,-1153 309.25,-1159 303.25,-1165 297.25,-1165"/>
<text xml:space="preserve" text-anchor="middle" x="260" y="-1150.55" font-family="Segoe UI" font-size="11.00">Message storage</text>
<text xml:space="preserve" text-anchor="middle" x="260" y="-1135.55" font-family="Segoe UI" font-size="11.00">(append&#45;only)</text>
</g>
<!-- msg&#45;&gt;store -->
<g id="edge1" class="edge">
<title>msg&#45;&gt;store</title>
<path fill="none" stroke="#555555" d="M260,-1201.57C260,-1194.1 260,-1185.17 260,-1176.71"/>
<polygon fill="#555555" stroke="#555555" points="263.5,-1176.79 260,-1166.79 256.5,-1176.79 263.5,-1176.79"/>
</g>
<!-- trig -->
<g id="node3" class="node">
<title>trig</title>
<polygon fill="#fff2cc" stroke="black" points="260,-1090 177.25,-1052 260,-1014 342.75,-1052 260,-1090"/>
<text xml:space="preserve" text-anchor="middle" x="260" y="-1056.55" font-family="Segoe UI" font-size="11.00">Direct / name</text>
<text xml:space="preserve" text-anchor="middle" x="260" y="-1041.55" font-family="Segoe UI" font-size="11.00">trigger?</text>
</g>
<!-- store&#45;&gt;trig -->
<g id="edge2" class="edge">
<title>store&#45;&gt;trig</title>
<path fill="none" stroke="#555555" d="M260,-1126.82C260,-1119.53 260,-1110.75 260,-1101.82"/>
<polygon fill="#555555" stroke="#555555" points="263.5,-1102.06 260,-1092.06 256.5,-1102.06 263.5,-1102.06"/>
</g>
<!-- batch -->
<g id="node4" class="node">
<title>batch</title>
<path fill="#eef2f5" stroke="black" d="M242.25,-965.25C242.25,-965.25 179.75,-965.25 179.75,-965.25 173.75,-965.25 167.75,-959.25 167.75,-953.25 167.75,-953.25 167.75,-939.25 167.75,-939.25 167.75,-933.25 173.75,-927.25 179.75,-927.25 179.75,-927.25 242.25,-927.25 242.25,-927.25 248.25,-927.25 254.25,-933.25 254.25,-939.25 254.25,-939.25 254.25,-953.25 254.25,-953.25 254.25,-959.25 248.25,-965.25 242.25,-965.25"/>
<text xml:space="preserve" text-anchor="middle" x="211" y="-950.8" font-family="Segoe UI" font-size="11.00">Per&#45;chat batch</text>
<text xml:space="preserve" text-anchor="middle" x="211" y="-935.8" font-family="Segoe UI" font-size="11.00">accumulator</text>
</g>
<!-- trig&#45;&gt;batch -->
<g id="edge4" class="edge">
<title>trig&#45;&gt;batch</title>
<path fill="none" stroke="#555555" d="M245.43,-1020.15C238.8,-1006.11 230.99,-989.59 224.5,-975.83"/>
<polygon fill="#555555" stroke="#555555" points="227.69,-974.4 220.26,-966.85 221.36,-977.39 227.69,-974.4"/>
<text xml:space="preserve" text-anchor="middle" x="237.82" y="-987.45" font-family="Segoe UI" font-size="9.00">no</text>
</g>
<!-- flush -->
<g id="node9" class="node">
<title>flush</title>
<path fill="#eef2f5" stroke="black" d="M397.88,-909.25C397.88,-909.25 294.12,-909.25 294.12,-909.25 288.12,-909.25 282.12,-903.25 282.12,-897.25 282.12,-897.25 282.12,-883.25 282.12,-883.25 282.12,-877.25 288.12,-871.25 294.12,-871.25 294.12,-871.25 397.88,-871.25 397.88,-871.25 403.88,-871.25 409.88,-877.25 409.88,-883.25 409.88,-883.25 409.88,-897.25 409.88,-897.25 409.88,-903.25 403.88,-909.25 397.88,-909.25"/>
<text xml:space="preserve" text-anchor="middle" x="346" y="-894.8" font-family="Segoe UI" font-size="11.00">Flush open batch</text>
<text xml:space="preserve" text-anchor="middle" x="346" y="-879.8" font-family="Segoe UI" font-size="11.00">=&gt; contextMessageIds</text>
</g>
<!-- trig&#45;&gt;flush -->
<g id="edge3" class="edge">
<title>trig&#45;&gt;flush</title>
<path fill="none" stroke="#555555" d="M276.18,-1020.95C291.79,-991.94 315.27,-948.33 330.62,-919.82"/>
<polygon fill="#555555" stroke="#555555" points="333.69,-921.5 335.35,-911.03 327.53,-918.18 333.69,-921.5"/>
<text xml:space="preserve" text-anchor="middle" x="302.04" y="-987.45" font-family="Segoe UI" font-size="9.00">yes</text>
</g>
<!-- flushc -->
<g id="node5" class="node">
<title>flushc</title>
<polygon fill="#fff2cc" stroke="black" points="178,-853.25 0,-815.25 178,-777.25 356,-815.25 178,-853.25"/>
<text xml:space="preserve" text-anchor="middle" x="178" y="-819.8" font-family="Segoe UI" font-size="11.00">Flush?</text>
<text xml:space="preserve" text-anchor="middle" x="178" y="-804.8" font-family="Segoe UI" font-size="11.00">size cap | hard&#45;cap age | idle gap</text>
</g>
<!-- batch&#45;&gt;flushc -->
<g id="edge5" class="edge">
<title>batch&#45;&gt;flushc</title>
<path fill="none" stroke="#555555" d="M199.9,-927.09C196.92,-921.54 193.99,-915.29 192,-909.25 187.33,-895.05 184.21,-879.12 182.13,-864.5"/>
<polygon fill="#555555" stroke="#555555" points="185.61,-864.1 180.87,-854.63 178.67,-864.99 185.61,-864.1"/>
</g>
<!-- flushc&#45;&gt;batch -->
<g id="edge6" class="edge">
<title>flushc&#45;&gt;batch</title>
<path fill="none" stroke="#555555" d="M187.08,-851.75C192.23,-871.86 198.59,-896.73 203.46,-915.77"/>
<polygon fill="#555555" stroke="#555555" points="200.03,-916.48 205.9,-925.3 206.81,-914.75 200.03,-916.48"/>
<text xml:space="preserve" text-anchor="middle" x="215.12" y="-888.08" font-family="Segoe UI" font-size="9.00">not yet</text>
</g>
<!-- gate -->
<g id="node6" class="node">
<title>gate</title>
<path fill="#d9ead3" stroke="black" d="M242.62,-728.5C242.62,-728.5 149.38,-728.5 149.38,-728.5 143.38,-728.5 137.38,-722.5 137.38,-716.5 137.38,-716.5 137.38,-687.5 137.38,-687.5 137.38,-681.5 143.38,-675.5 149.38,-675.5 149.38,-675.5 242.62,-675.5 242.62,-675.5 248.62,-675.5 254.62,-681.5 254.62,-687.5 254.62,-687.5 254.62,-716.5 254.62,-716.5 254.62,-722.5 248.62,-728.5 242.62,-728.5"/>
<text xml:space="preserve" text-anchor="middle" x="196" y="-714.05" font-family="Segoe UI" font-size="11.00">Cheap behavior gate</text>
<text xml:space="preserve" text-anchor="middle" x="196" y="-699.05" font-family="Segoe UI" font-size="11.00">(triggerGate slot)</text>
<text xml:space="preserve" text-anchor="middle" x="196" y="-684.05" font-family="Segoe UI" font-size="11.00">one call per batch</text>
</g>
<!-- flushc&#45;&gt;gate -->
<g id="edge7" class="edge">
<title>flushc&#45;&gt;gate</title>
<path fill="none" stroke="#555555" d="M183.84,-778.13C185.82,-765.92 188.03,-752.27 190.02,-739.99"/>
<polygon fill="#555555" stroke="#555555" points="193.45,-740.65 191.6,-730.22 186.54,-739.54 193.45,-740.65"/>
<text xml:space="preserve" text-anchor="middle" x="198.36" y="-750.7" font-family="Segoe UI" font-size="9.00">flush</text>
</g>
<!-- sd -->
<g id="node7" class="node">
<title>sd</title>
<polygon fill="#fff2cc" stroke="black" points="200,-638.5 118.42,-620.5 200,-602.5 281.58,-620.5 200,-638.5"/>
<text xml:space="preserve" text-anchor="middle" x="200" y="-617.55" font-family="Segoe UI" font-size="11.00">shouldDecide?</text>
</g>
<!-- gate&#45;&gt;sd -->
<g id="edge8" class="edge">
<title>gate&#45;&gt;sd</title>
<path fill="none" stroke="#555555" d="M197.29,-675.41C197.69,-667.36 198.14,-658.41 198.56,-650.16"/>
<polygon fill="#555555" stroke="#555555" points="202.05,-650.43 199.06,-640.27 195.06,-650.08 202.05,-650.43"/>
</g>
<!-- stop -->
<g id="node8" class="node">
<title>stop</title>
<path fill="#f4cccc" stroke="black" d="M260.12,-546.25C260.12,-546.25 139.88,-546.25 139.88,-546.25 133.88,-546.25 127.88,-540.25 127.88,-534.25 127.88,-534.25 127.88,-520.25 127.88,-520.25 127.88,-514.25 133.88,-508.25 139.88,-508.25 139.88,-508.25 260.12,-508.25 260.12,-508.25 266.12,-508.25 272.12,-514.25 272.12,-520.25 272.12,-520.25 272.12,-534.25 272.12,-534.25 272.12,-540.25 266.12,-546.25 260.12,-546.25"/>
<text xml:space="preserve" text-anchor="middle" x="200" y="-531.8" font-family="Segoe UI" font-size="11.00">Store only &amp; stop</text>
<text xml:space="preserve" text-anchor="middle" x="200" y="-516.8" font-family="Segoe UI" font-size="11.00">no action, no state change</text>
</g>
<!-- sd&#45;&gt;stop -->
<g id="edge9" class="edge">
<title>sd&#45;&gt;stop</title>
<path fill="none" stroke="#555555" d="M200,-602.34C200,-589.79 200,-572.46 200,-557.72"/>
<polygon fill="#555555" stroke="#555555" points="203.5,-558.1 200,-548.1 196.5,-558.1 203.5,-558.1"/>
<text xml:space="preserve" text-anchor="middle" x="209" y="-575.95" font-family="Segoe UI" font-size="9.00">false</text>
</g>
<!-- ctx -->
<g id="node10" class="node">
<title>ctx</title>
<path fill="#eef2f5" stroke="black" d="M462.62,-553.75C462.62,-553.75 303.38,-553.75 303.38,-553.75 297.38,-553.75 291.38,-547.75 291.38,-541.75 291.38,-541.75 291.38,-512.75 291.38,-512.75 291.38,-506.75 297.38,-500.75 303.38,-500.75 303.38,-500.75 462.62,-500.75 462.62,-500.75 468.62,-500.75 474.62,-506.75 474.62,-512.75 474.62,-512.75 474.62,-541.75 474.62,-541.75 474.62,-547.75 468.62,-553.75 462.62,-553.75"/>
<text xml:space="preserve" text-anchor="middle" x="383" y="-539.3" font-family="Segoe UI" font-size="11.00">Context Assembly</text>
<text xml:space="preserve" text-anchor="middle" x="383" y="-524.3" font-family="Segoe UI" font-size="11.00">recent window + summary + state</text>
<text xml:space="preserve" text-anchor="middle" x="383" y="-509.3" font-family="Segoe UI" font-size="11.00">+ trigger/context overlay</text>
</g>
<!-- sd&#45;&gt;ctx -->
<g id="edge10" class="edge">
<title>sd&#45;&gt;ctx</title>
<path fill="none" stroke="#555555" d="M224.3,-607.38C248.88,-595.12 287.89,-575.68 321.08,-559.13"/>
<polygon fill="#555555" stroke="#555555" points="322.43,-562.37 329.81,-554.77 319.3,-556.1 322.43,-562.37"/>
<text xml:space="preserve" text-anchor="middle" x="299.38" y="-575.95" font-family="Segoe UI" font-size="9.00">true</text>
</g>
<!-- flush&#45;&gt;ctx -->
<g id="edge11" class="edge">
<title>flush&#45;&gt;ctx</title>
<path fill="none" stroke="#555555" d="M356.95,-871.04C359.92,-865.48 362.9,-859.25 365,-853.25 379.88,-810.82 384,-798.84 384,-753.88 384,-753.88 384,-753.88 384,-619.5 384,-601.78 383.81,-582.12 383.59,-565.61"/>
<polygon fill="#555555" stroke="#555555" points="387.1,-565.67 383.46,-555.72 380.1,-565.77 387.1,-565.67"/>
</g>
<!-- decide -->
<g id="node11" class="node">
<title>decide</title>
<path fill="#b6d7a8" stroke="black" stroke-width="2" d="M527.88,-463.75C527.88,-463.75 424.12,-463.75 424.12,-463.75 418.12,-463.75 412.12,-457.75 412.12,-451.75 412.12,-451.75 412.12,-422.75 412.12,-422.75 412.12,-416.75 418.12,-410.75 424.12,-410.75 424.12,-410.75 527.88,-410.75 527.88,-410.75 533.88,-410.75 539.88,-416.75 539.88,-422.75 539.88,-422.75 539.88,-451.75 539.88,-451.75 539.88,-457.75 533.88,-463.75 527.88,-463.75"/>
<text xml:space="preserve" text-anchor="middle" x="476" y="-449.3" font-family="Segoe UI" font-size="11.00">decideBehavior</text>
<text xml:space="preserve" text-anchor="middle" x="476" y="-434.3" font-family="Segoe UI" font-size="11.00">(behaviorDecision slot)</text>
<text xml:space="preserve" text-anchor="middle" x="476" y="-419.3" font-family="Segoe UI" font-size="11.00">structured JSON</text>
</g>
<!-- ctx&#45;&gt;decide -->
<g id="edge12" class="edge">
<title>ctx&#45;&gt;decide</title>
<path fill="none" stroke="#555555" d="M410.4,-500.32C419.69,-491.53 430.22,-481.57 440.07,-472.25"/>
<polygon fill="#555555" stroke="#555555" points="442.19,-475.06 447.05,-465.64 437.38,-469.97 442.19,-475.06"/>
</g>
<!-- validate -->
<g id="node13" class="node">
<title>validate</title>
<path fill="#eef2f5" stroke="black" d="M468.12,-373.75C468.12,-373.75 293.88,-373.75 293.88,-373.75 287.88,-373.75 281.88,-367.75 281.88,-361.75 281.88,-361.75 281.88,-349.75 281.88,-349.75 281.88,-343.75 287.88,-337.75 293.88,-337.75 293.88,-337.75 468.12,-337.75 468.12,-337.75 474.12,-337.75 480.12,-343.75 480.12,-349.75 480.12,-349.75 480.12,-361.75 480.12,-361.75 480.12,-367.75 474.12,-373.75 468.12,-373.75"/>
<text xml:space="preserve" text-anchor="middle" x="381" y="-352.8" font-family="Segoe UI" font-size="11.00">Validator + PatchPolicy + RateLimiter</text>
</g>
<!-- decide&#45;&gt;validate -->
<g id="edge14" class="edge">
<title>decide&#45;&gt;validate</title>
<path fill="none" stroke="#555555" d="M444.37,-409.78C433.4,-400.6 421.16,-390.36 410.39,-381.34"/>
<polygon fill="#555555" stroke="#555555" points="412.82,-378.81 402.9,-375.08 408.33,-384.18 412.82,-378.81"/>
</g>
<!-- events -->
<g id="node21" class="node">
<title>events</title>
<path fill="#d9d9d9" stroke="black" d="M555.38,-32.73C555.38,-34.53 534.14,-36 508,-36 481.86,-36 460.62,-34.53 460.62,-32.73 460.62,-32.73 460.62,-3.27 460.62,-3.27 460.62,-1.47 481.86,0 508,0 534.14,0 555.38,-1.47 555.38,-3.27 555.38,-3.27 555.38,-32.73 555.38,-32.73"/>
<path fill="none" stroke="black" d="M555.38,-32.73C555.38,-30.92 534.14,-29.45 508,-29.45 481.86,-29.45 460.62,-30.92 460.62,-32.73"/>
<text xml:space="preserve" text-anchor="middle" x="508" y="-15.05" font-family="Segoe UI" font-size="11.00">behavior_events</text>
</g>
<!-- decide&#45;&gt;events -->
<g id="edge23" class="edge">
<title>decide&#45;&gt;events</title>
<path fill="none" stroke="#555555" d="M492.37,-410.07C500.25,-395.05 508,-375.5 508,-356.75 508,-356.75 508,-356.75 508,-98.5 508,-81.62 508,-62.72 508,-47.59"/>
<polygon fill="#555555" stroke="#555555" points="511.5,-47.88 508,-37.88 504.5,-47.88 511.5,-47.88"/>
</g>
<!-- risk -->
<g id="node12" class="node">
<title>risk</title>
<polygon fill="#fce5cd" stroke="black" points="639.25,-546.25 492.75,-546.25 492.75,-508.25 645.25,-508.25 645.25,-540.25 639.25,-546.25"/>
<polyline fill="none" stroke="black" points="639.25,-546.25 639.25,-540.25"/>
<polyline fill="none" stroke="black" points="645.25,-540.25 639.25,-540.25"/>
<text xml:space="preserve" text-anchor="middle" x="569" y="-531.8" font-family="Segoe UI" font-size="11.00">gate stateImpactRisk = high</text>
<text xml:space="preserve" text-anchor="middle" x="569" y="-516.8" font-family="Segoe UI" font-size="11.00">=&gt; start on stronger model</text>
</g>
<!-- risk&#45;&gt;decide -->
<g id="edge13" class="edge">
<title>risk&#45;&gt;decide</title>
<path fill="none" stroke="#555555" stroke-dasharray="5,2" d="M549.73,-508.02C538.82,-497.69 524.82,-484.45 511.96,-472.27"/>
<polygon fill="#555555" stroke="#555555" points="514.48,-469.84 504.81,-465.51 509.67,-474.93 514.48,-469.84"/>
</g>
<!-- exec -->
<g id="node14" class="node">
<title>exec</title>
<path fill="#eef2f5" stroke="black" d="M337,-289C337,-289 261,-289 261,-289 255,-289 249,-283 249,-277 249,-277 249,-265 249,-265 249,-259 255,-253 261,-253 261,-253 337,-253 337,-253 343,-253 349,-259 349,-265 349,-265 349,-277 349,-277 349,-283 343,-289 337,-289"/>
<text xml:space="preserve" text-anchor="middle" x="299" y="-268.05" font-family="Segoe UI" font-size="11.00">BehaviorExecutor</text>
</g>
<!-- validate&#45;&gt;exec -->
<g id="edge16" class="edge">
<title>validate&#45;&gt;exec</title>
<path fill="none" stroke="#555555" d="M364.01,-337.6C352.54,-326.03 337.21,-310.55 324.31,-297.54"/>
<polygon fill="#555555" stroke="#555555" points="326.84,-295.12 317.32,-290.48 321.87,-300.05 326.84,-295.12"/>
</g>
<!-- errlog -->
<g id="node22" class="node">
<title>errlog</title>
<path fill="#f4cccc" stroke="black" d="M455.38,-285.73C455.38,-287.53 435.49,-289 411,-289 386.51,-289 366.62,-287.53 366.62,-285.73 366.62,-285.73 366.62,-256.27 366.62,-256.27 366.62,-254.47 386.51,-253 411,-253 435.49,-253 455.38,-254.47 455.38,-256.27 455.38,-256.27 455.38,-285.73 455.38,-285.73"/>
<path fill="none" stroke="black" d="M455.38,-285.73C455.38,-283.92 435.49,-282.45 411,-282.45 386.51,-282.45 366.62,-283.92 366.62,-285.73"/>
<text xml:space="preserve" text-anchor="middle" x="411" y="-268.05" font-family="Segoe UI" font-size="11.00">ai_error_events</text>
</g>
<!-- validate&#45;&gt;errlog -->
<g id="edge15" class="edge">
<title>validate&#45;&gt;errlog</title>
<path fill="none" stroke="#cc0000" stroke-dasharray="5,2" d="M387.22,-337.6C391.13,-326.8 396.28,-312.6 400.79,-300.17"/>
<polygon fill="#cc0000" stroke="#cc0000" points="404.05,-301.43 404.17,-290.83 397.47,-299.04 404.05,-301.43"/>
<text xml:space="preserve" text-anchor="middle" x="416.55" y="-311.2" font-family="Segoe UI" font-size="9.00" fill="#cc0000">on failure</text>
</g>
<!-- actions -->
<g id="node15" class="node">
<title>actions</title>
<path fill="#d0e0e3" stroke="black" d="M271.12,-216C271.12,-216 132.88,-216 132.88,-216 126.88,-216 120.88,-210 120.88,-204 120.88,-204 120.88,-175 120.88,-175 120.88,-169 126.88,-163 132.88,-163 132.88,-163 271.12,-163 271.12,-163 277.12,-163 283.12,-169 283.12,-175 283.12,-175 283.12,-204 283.12,-204 283.12,-210 277.12,-216 271.12,-216"/>
<text xml:space="preserve" text-anchor="middle" x="202" y="-201.55" font-family="Segoe UI" font-size="11.00">Visible / runtime actions</text>
<text xml:space="preserve" text-anchor="middle" x="202" y="-186.55" font-family="Segoe UI" font-size="11.00">reply · react · ask_question</text>
<text xml:space="preserve" text-anchor="middle" x="202" y="-171.55" font-family="Segoe UI" font-size="11.00">summarize_thread · empty set</text>
</g>
<!-- exec&#45;&gt;actions -->
<g id="edge17" class="edge">
<title>exec&#45;&gt;actions</title>
<path fill="none" stroke="#555555" d="M277.95,-252.75C267.55,-244.22 254.64,-233.64 242.42,-223.63"/>
<polygon fill="#555555" stroke="#555555" points="244.83,-221.07 234.87,-217.44 240.39,-226.49 244.83,-221.07"/>
</g>
<!-- live -->
<g id="node16" class="node">
<title>live</title>
<path fill="#d0e0e3" stroke="black" d="M449,-208.5C449,-208.5 313,-208.5 313,-208.5 307,-208.5 301,-202.5 301,-196.5 301,-196.5 301,-182.5 301,-182.5 301,-176.5 307,-170.5 313,-170.5 313,-170.5 449,-170.5 449,-170.5 455,-170.5 461,-176.5 461,-182.5 461,-182.5 461,-196.5 461,-196.5 461,-202.5 455,-208.5 449,-208.5"/>
<text xml:space="preserve" text-anchor="middle" x="381" y="-194.05" font-family="Segoe UI" font-size="11.00">Live patches</text>
<text xml:space="preserve" text-anchor="middle" x="381" y="-179.05" font-family="Segoe UI" font-size="11.00">UserProfilePatch + TruthPatch</text>
</g>
<!-- exec&#45;&gt;live -->
<g id="edge18" class="edge">
<title>exec&#45;&gt;live</title>
<path fill="none" stroke="#555555" d="M316.79,-252.75C327.66,-242.21 341.78,-228.53 354,-216.68"/>
<polygon fill="#555555" stroke="#555555" points="356.27,-219.35 361.01,-209.88 351.4,-214.32 356.27,-219.35"/>
</g>
<!-- tg -->
<g id="node18" class="node">
<title>tg</title>
<ellipse fill="#cfe8ff" stroke="black" cx="202" cy="-99.5" rx="39.65" ry="18"/>
<text xml:space="preserve" text-anchor="middle" x="202" y="-96.55" font-family="Segoe UI" font-size="11.00">Telegram</text>
</g>
<!-- actions&#45;&gt;tg -->
<g id="edge19" class="edge">
<title>actions&#45;&gt;tg</title>
<path fill="none" stroke="#555555" d="M202,-162.57C202,-152.11 202,-140 202,-129.27"/>
<polygon fill="#555555" stroke="#555555" points="205.5,-129.41 202,-119.41 198.5,-129.41 205.5,-129.41"/>
</g>
<!-- applic -->
<g id="node17" class="node">
<title>applic</title>
<path fill="#eef2f5" stroke="black" d="M438.88,-126C438.88,-126 323.12,-126 323.12,-126 317.12,-126 311.12,-120 311.12,-114 311.12,-114 311.12,-85 311.12,-85 311.12,-79 317.12,-73 323.12,-73 323.12,-73 438.88,-73 438.88,-73 444.88,-73 450.88,-79 450.88,-85 450.88,-85 450.88,-114 450.88,-114 450.88,-120 444.88,-126 438.88,-126"/>
<text xml:space="preserve" text-anchor="middle" x="381" y="-111.55" font-family="Segoe UI" font-size="11.00">StatePatchApplicator</text>
<text xml:space="preserve" text-anchor="middle" x="381" y="-96.55" font-family="Segoe UI" font-size="11.00">best&#45;effort, independent</text>
<text xml:space="preserve" text-anchor="middle" x="381" y="-81.55" font-family="Segoe UI" font-size="11.00">recompute trust/distance</text>
</g>
<!-- live&#45;&gt;applic -->
<g id="edge20" class="edge">
<title>live&#45;&gt;applic</title>
<path fill="none" stroke="#555555" d="M381,-170.27C381,-160.85 381,-149 381,-137.76"/>
<polygon fill="#555555" stroke="#555555" points="384.5,-137.9 381,-127.9 377.5,-137.9 384.5,-137.9"/>
</g>
<!-- profiles -->
<g id="node19" class="node">
<title>profiles</title>
<path fill="#d9d9d9" stroke="black" d="M344.25,-32.73C344.25,-34.53 319.49,-36 289,-36 258.51,-36 233.75,-34.53 233.75,-32.73 233.75,-32.73 233.75,-3.27 233.75,-3.27 233.75,-1.47 258.51,0 289,0 319.49,0 344.25,-1.47 344.25,-3.27 344.25,-3.27 344.25,-32.73 344.25,-32.73"/>
<path fill="none" stroke="black" d="M344.25,-32.73C344.25,-30.92 319.49,-29.45 289,-29.45 258.51,-29.45 233.75,-30.92 233.75,-32.73"/>
<text xml:space="preserve" text-anchor="middle" x="289" y="-15.05" font-family="Segoe UI" font-size="11.00">user_social_profiles</text>
</g>
<!-- applic&#45;&gt;profiles -->
<g id="edge21" class="edge">
<title>applic&#45;&gt;profiles</title>
<path fill="none" stroke="#555555" d="M351.13,-72.69C340.39,-63.41 328.31,-52.97 317.67,-43.78"/>
<polygon fill="#555555" stroke="#555555" points="320.14,-41.28 310.29,-37.39 315.56,-46.58 320.14,-41.28"/>
</g>
<!-- truths -->
<g id="node20" class="node">
<title>truths</title>
<path fill="#d9d9d9" stroke="black" d="M427.75,-32.73C427.75,-34.53 413.07,-36 395,-36 376.93,-36 362.25,-34.53 362.25,-32.73 362.25,-32.73 362.25,-3.27 362.25,-3.27 362.25,-1.47 376.93,0 395,0 413.07,0 427.75,-1.47 427.75,-3.27 427.75,-3.27 427.75,-32.73 427.75,-32.73"/>
<path fill="none" stroke="black" d="M427.75,-32.73C427.75,-30.92 413.07,-29.45 395,-29.45 376.93,-29.45 362.25,-30.92 362.25,-32.73"/>
<text xml:space="preserve" text-anchor="middle" x="395" y="-15.05" font-family="Segoe UI" font-size="11.00">bot_truths</text>
</g>
<!-- applic&#45;&gt;truths -->
<g id="edge22" class="edge">
<title>applic&#45;&gt;truths</title>
<path fill="none" stroke="#555555" d="M385.51,-72.91C386.94,-64.76 388.54,-55.71 390,-47.38"/>
<polygon fill="#555555" stroke="#555555" points="393.41,-48.2 391.7,-37.75 386.52,-46.99 393.41,-48.2"/>
</g>
</g>
</svg>
