<?xml version="1.0" encoding="UTF-8" standalone="no"?>
<!DOCTYPE svg PUBLIC "-//W3C//DTD SVG 1.1//EN"
 "http://www.w3.org/Graphics/SVG/1.1/DTD/svg11.dtd">
<!-- Generated by graphviz version 13.1.2 (20250808.2320)
 -->
<!-- Title: evo Pages: 1 -->
<svg width="848pt" height="815pt"
 viewBox="0.00 0.00 848.00 815.00" xmlns="http://www.w3.org/2000/svg" xmlns:xlink="http://www.w3.org/1999/xlink">
<g id="graph0" class="graph" transform="scale(1 1) rotate(0) translate(4 810.5)">
<title>evo</title>
<polygon fill="white" stroke="none" points="-4,4 -4,-810.5 843.88,-810.5 843.88,4 -4,4"/>
<text xml:space="preserve" text-anchor="middle" x="419.94" y="-787.3" font-family="Segoe UI" font-size="16.00">AI Behavior — Background state&#45;evolution pass</text>
<!-- events -->
<g id="node1" class="node">
<title>events</title>
<path fill="#d9d9d9" stroke="black" d="M283.12,-772.73C283.12,-774.53 261.89,-776 235.75,-776 209.61,-776 188.38,-774.53 188.38,-772.73 188.38,-772.73 188.38,-743.27 188.38,-743.27 188.38,-741.47 209.61,-740 235.75,-740 261.89,-740 283.12,-741.47 283.12,-743.27 283.12,-743.27 283.12,-772.73 283.12,-772.73"/>
<path fill="none" stroke="black" d="M283.12,-772.73C283.12,-770.92 261.89,-769.45 235.75,-769.45 209.61,-769.45 188.38,-770.92 188.38,-772.73"/>
<text xml:space="preserve" text-anchor="middle" x="235.75" y="-755.05" font-family="Segoe UI" font-size="11.00">behavior_events</text>
</g>
<!-- thr -->
<g id="node2" class="node">
<title>thr</title>
<polygon fill="#fff2cc" stroke="black" points="235.75,-703 0,-665 235.75,-627 471.5,-665 235.75,-703"/>
<text xml:space="preserve" text-anchor="middle" x="235.75" y="-669.55" font-family="Segoe UI" font-size="11.00">New events since high&#45;water mark &gt;= N_evo</text>
<text xml:space="preserve" text-anchor="middle" x="235.75" y="-654.55" font-family="Segoe UI" font-size="11.00">AND cooldown passed?</text>
</g>
<!-- events&#45;&gt;thr -->
<g id="edge1" class="edge">
<title>events&#45;&gt;thr</title>
<path fill="none" stroke="#555555" d="M235.75,-739.88C235.75,-732.64 235.75,-723.81 235.75,-714.8"/>
<polygon fill="#555555" stroke="#555555" points="239.25,-714.91 235.75,-704.91 232.25,-714.91 239.25,-714.91"/>
</g>
<!-- idle -->
<g id="node4" class="node">
<title>idle</title>
<path fill="#f3f3f3" stroke="black" d="M250.75,-577.25C250.75,-577.25 220.75,-577.25 220.75,-577.25 214.75,-577.25 208.75,-571.25 208.75,-565.25 208.75,-565.25 208.75,-553.25 208.75,-553.25 208.75,-547.25 214.75,-541.25 220.75,-541.25 220.75,-541.25 250.75,-541.25 250.75,-541.25 256.75,-541.25 262.75,-547.25 262.75,-553.25 262.75,-553.25 262.75,-565.25 262.75,-565.25 262.75,-571.25 256.75,-577.25 250.75,-577.25"/>
<text xml:space="preserve" text-anchor="middle" x="235.75" y="-556.3" font-family="Segoe UI" font-size="11.00">wait</text>
</g>
<!-- thr&#45;&gt;idle -->
<g id="edge2" class="edge">
<title>thr&#45;&gt;idle</title>
<path fill="none" stroke="#555555" d="M235.75,-626.54C235.75,-614.14 235.75,-600.54 235.75,-588.9"/>
<polygon fill="#555555" stroke="#555555" points="239.25,-589.13 235.75,-579.13 232.25,-589.13 239.25,-589.13"/>
<text xml:space="preserve" text-anchor="middle" x="249.62" y="-600.45" font-family="Segoe UI" font-size="9.00">not yet</text>
</g>
<!-- enq -->
<g id="node5" class="node">
<title>enq</title>
<path fill="#eef2f5" stroke="black" d="M550.88,-578.25C550.88,-578.25 424.62,-578.25 424.62,-578.25 418.62,-578.25 412.62,-572.25 412.62,-566.25 412.62,-566.25 412.62,-552.25 412.62,-552.25 412.62,-546.25 418.62,-540.25 424.62,-540.25 424.62,-540.25 550.88,-540.25 550.88,-540.25 556.88,-540.25 562.88,-546.25 562.88,-552.25 562.88,-552.25 562.88,-566.25 562.88,-566.25 562.88,-572.25 556.88,-578.25 550.88,-578.25"/>
<text xml:space="preserve" text-anchor="middle" x="487.75" y="-563.8" font-family="Segoe UI" font-size="11.00">Enqueue per&#45;chat job</text>
<text xml:space="preserve" text-anchor="middle" x="487.75" y="-548.8" font-family="Segoe UI" font-size="11.00">single deduplicated worker</text>
</g>
<!-- thr&#45;&gt;enq -->
<g id="edge3" class="edge">
<title>thr&#45;&gt;enq</title>
<path fill="none" stroke="#555555" d="M300.97,-637.15C341.76,-620.35 393.73,-598.96 432.48,-583"/>
<polygon fill="#555555" stroke="#555555" points="433.73,-586.27 441.65,-579.23 431.07,-579.8 433.73,-586.27"/>
<text xml:space="preserve" text-anchor="middle" x="405.42" y="-600.45" font-family="Segoe UI" font-size="9.00">yes</text>
</g>
<!-- sweep -->
<g id="node3" class="node">
<title>sweep</title>
<path fill="#eef2f5" stroke="black" d="M630,-684C630,-684 501.5,-684 501.5,-684 495.5,-684 489.5,-678 489.5,-672 489.5,-672 489.5,-658 489.5,-658 489.5,-652 495.5,-646 501.5,-646 501.5,-646 630,-646 630,-646 636,-646 642,-652 642,-658 642,-658 642,-672 642,-672 642,-678 636,-684 630,-684"/>
<text xml:space="preserve" text-anchor="middle" x="565.75" y="-669.55" font-family="Segoe UI" font-size="11.00">Periodic cron sweep</text>
<text xml:space="preserve" text-anchor="middle" x="565.75" y="-654.55" font-family="Segoe UI" font-size="11.00">floor: waited beyond T_max</text>
</g>
<!-- sweep&#45;&gt;enq -->
<g id="edge4" class="edge">
<title>sweep&#45;&gt;enq</title>
<path fill="none" stroke="#555555" stroke-dasharray="5,2" d="M552.16,-645.93C540.05,-629.81 522.13,-605.98 508.27,-587.54"/>
<polygon fill="#555555" stroke="#555555" points="511.16,-585.56 502.35,-579.67 505.56,-589.77 511.16,-585.56"/>
<text xml:space="preserve" text-anchor="middle" x="531.45" y="-600.45" font-family="Segoe UI" font-size="9.00">floor</text>
</g>
<!-- pass -->
<g id="node6" class="node">
<title>pass</title>
<path fill="#b6d7a8" stroke="black" stroke-width="2" d="M680.62,-503.25C680.62,-503.25 510.88,-503.25 510.88,-503.25 504.88,-503.25 498.88,-497.25 498.88,-491.25 498.88,-491.25 498.88,-477.25 498.88,-477.25 498.88,-471.25 504.88,-465.25 510.88,-465.25 510.88,-465.25 680.62,-465.25 680.62,-465.25 686.62,-465.25 692.62,-471.25 692.62,-477.25 692.62,-477.25 692.62,-491.25 692.62,-491.25 692.62,-497.25 686.62,-503.25 680.62,-503.25"/>
<text xml:space="preserve" text-anchor="middle" x="595.75" y="-488.8" font-family="Segoe UI" font-size="11.00">State&#45;evolution pass</text>
<text xml:space="preserve" text-anchor="middle" x="595.75" y="-473.8" font-family="Segoe UI" font-size="11.00">(stateEvolution slot, stronger model)</text>
</g>
<!-- enq&#45;&gt;pass -->
<g id="edge5" class="edge">
<title>enq&#45;&gt;pass</title>
<path fill="none" stroke="#555555" d="M515,-539.83C528.1,-530.97 544.01,-520.22 558.23,-510.61"/>
<polygon fill="#555555" stroke="#555555" points="560.17,-513.52 566.5,-505.02 556.25,-507.72 560.17,-513.52"/>
</g>
<!-- reads -->
<g id="node8" class="node">
<title>reads</title>
<path fill="#eef2f5" stroke="black" d="M495.12,-421.12C495.12,-421.12 340.38,-421.12 340.38,-421.12 334.38,-421.12 328.38,-415.12 328.38,-409.12 328.38,-409.12 328.38,-395.12 328.38,-395.12 328.38,-389.12 334.38,-383.12 340.38,-383.12 340.38,-383.12 495.12,-383.12 495.12,-383.12 501.12,-383.12 507.12,-389.12 507.12,-395.12 507.12,-395.12 507.12,-409.12 507.12,-409.12 507.12,-415.12 501.12,-421.12 495.12,-421.12"/>
<text xml:space="preserve" text-anchor="middle" x="417.75" y="-406.68" font-family="Segoe UI" font-size="11.00">Read delta since high&#45;water mark</text>
<text xml:space="preserve" text-anchor="middle" x="417.75" y="-391.68" font-family="Segoe UI" font-size="11.00">+ current rendered state</text>
</g>
<!-- pass&#45;&gt;reads -->
<g id="edge7" class="edge">
<title>pass&#45;&gt;reads</title>
<path fill="none" stroke="#555555" d="M553.57,-464.26C528.24,-452.86 495.85,-438.28 469.06,-426.22"/>
<polygon fill="#555555" stroke="#555555" points="470.65,-423.1 460.09,-422.18 467.77,-429.48 470.65,-423.1"/>
</g>
<!-- hw -->
<g id="node16" class="node">
<title>hw</title>
<path fill="#eef2f5" stroke="black" d="M654,-420.12C654,-420.12 537.5,-420.12 537.5,-420.12 531.5,-420.12 525.5,-414.12 525.5,-408.12 525.5,-408.12 525.5,-396.12 525.5,-396.12 525.5,-390.12 531.5,-384.12 537.5,-384.12 537.5,-384.12 654,-384.12 654,-384.12 660,-384.12 666,-390.12 666,-396.12 666,-396.12 666,-408.12 666,-408.12 666,-414.12 660,-420.12 654,-420.12"/>
<text xml:space="preserve" text-anchor="middle" x="595.75" y="-399.18" font-family="Segoe UI" font-size="11.00">Advance high&#45;water mark</text>
</g>
<!-- pass&#45;&gt;hw -->
<g id="edge16" class="edge">
<title>pass&#45;&gt;hw</title>
<path fill="none" stroke="#555555" d="M595.75,-464.26C595.75,-454.65 595.75,-442.76 595.75,-432.04"/>
<polygon fill="#555555" stroke="#555555" points="599.25,-432.12 595.75,-422.12 592.25,-432.12 599.25,-432.12"/>
</g>
<!-- ev2 -->
<g id="node17" class="node">
<title>ev2</title>
<path fill="#d9d9d9" stroke="black" d="M839.88,-423.5C839.88,-426.12 804.86,-428.25 761.75,-428.25 718.64,-428.25 683.62,-426.12 683.62,-423.5 683.62,-423.5 683.62,-380.75 683.62,-380.75 683.62,-378.13 718.64,-376 761.75,-376 804.86,-376 839.88,-378.13 839.88,-380.75 839.88,-380.75 839.88,-423.5 839.88,-423.5"/>
<path fill="none" stroke="black" d="M839.88,-423.5C839.88,-420.88 804.86,-418.75 761.75,-418.75 718.64,-418.75 683.62,-420.88 683.62,-423.5"/>
<text xml:space="preserve" text-anchor="middle" x="761.75" y="-406.68" font-family="Segoe UI" font-size="11.00">behavior_events</text>
<text xml:space="preserve" text-anchor="middle" x="761.75" y="-391.68" font-family="Segoe UI" font-size="11.00">(modelSlot = stateEvolution)</text>
</g>
<!-- pass&#45;&gt;ev2 -->
<g id="edge17" class="edge">
<title>pass&#45;&gt;ev2</title>
<path fill="none" stroke="#555555" d="M635.09,-464.26C654.37,-454.95 678.06,-443.52 699.7,-433.07"/>
<polygon fill="#555555" stroke="#555555" points="700.96,-436.35 708.45,-428.85 697.92,-430.05 700.96,-436.35"/>
</g>
<!-- riskp -->
<g id="node7" class="node">
<title>riskp</title>
<polygon fill="#fce5cd" stroke="black" points="820.12,-578.25 581.38,-578.25 581.38,-540.25 826.12,-540.25 826.12,-572.25 820.12,-578.25"/>
<polyline fill="none" stroke="black" points="820.12,-578.25 820.12,-572.25"/>
<polyline fill="none" stroke="black" points="826.12,-572.25 820.12,-572.25"/>
<text xml:space="preserve" text-anchor="middle" x="703.75" y="-563.8" font-family="Segoe UI" font-size="11.00">batch stateImpactRisk = high</text>
<text xml:space="preserve" text-anchor="middle" x="703.75" y="-548.8" font-family="Segoe UI" font-size="11.00">=&gt; raise priority + review with stronger model</text>
</g>
<!-- riskp&#45;&gt;pass -->
<g id="edge6" class="edge">
<title>riskp&#45;&gt;pass</title>
<path fill="none" stroke="#555555" stroke-dasharray="5,2" d="M676.5,-539.83C663.4,-530.97 647.49,-520.22 633.27,-510.61"/>
<polygon fill="#555555" stroke="#555555" points="635.25,-507.72 625,-505.02 631.33,-513.52 635.25,-507.72"/>
</g>
<!-- propose -->
<g id="node9" class="node">
<title>propose</title>
<path fill="#d0e0e3" stroke="black" d="M433.25,-339C433.25,-339 282.25,-339 282.25,-339 276.25,-339 270.25,-333 270.25,-327 270.25,-327 270.25,-313 270.25,-313 270.25,-307 276.25,-301 282.25,-301 282.25,-301 433.25,-301 433.25,-301 439.25,-301 445.25,-307 445.25,-313 445.25,-313 445.25,-327 445.25,-327 445.25,-333 439.25,-339 433.25,-339"/>
<text xml:space="preserve" text-anchor="middle" x="357.75" y="-324.55" font-family="Segoe UI" font-size="11.00">Propose EvolutionPatch</text>
<text xml:space="preserve" text-anchor="middle" x="357.75" y="-309.55" font-family="Segoe UI" font-size="11.00">personality.add_signal · politics.*</text>
</g>
<!-- reads&#45;&gt;propose -->
<g id="edge8" class="edge">
<title>reads&#45;&gt;propose</title>
<path fill="none" stroke="#555555" d="M404.14,-382.94C396.52,-372.77 386.87,-359.88 378.34,-348.5"/>
<polygon fill="#555555" stroke="#555555" points="381.22,-346.51 372.43,-340.6 375.62,-350.7 381.22,-346.51"/>
</g>
<!-- derive -->
<g id="node10" class="node">
<title>derive</title>
<path fill="#d0e0e3" stroke="black" d="M593,-283C593,-283 374.5,-283 374.5,-283 368.5,-283 362.5,-277 362.5,-271 362.5,-271 362.5,-242 362.5,-242 362.5,-236 368.5,-230 374.5,-230 374.5,-230 593,-230 593,-230 599,-230 605,-236 605,-242 605,-242 605,-271 605,-271 605,-277 599,-283 593,-283"/>
<text xml:space="preserve" text-anchor="middle" x="483.75" y="-268.55" font-family="Segoe UI" font-size="11.00">Derive snapshots</text>
<text xml:space="preserve" text-anchor="middle" x="483.75" y="-253.55" font-family="Segoe UI" font-size="11.00">personality arrays/enums</text>
<text xml:space="preserve" text-anchor="middle" x="483.75" y="-238.55" font-family="Segoe UI" font-size="11.00">profile communication/conflict/tone/interests</text>
</g>
<!-- reads&#45;&gt;derive -->
<g id="edge9" class="edge">
<title>reads&#45;&gt;derive</title>
<path fill="none" stroke="#555555" d="M429.48,-382.82C436.98,-370.68 446.6,-354.23 453.75,-339 460.54,-324.54 466.85,-308.08 471.91,-293.76"/>
<polygon fill="#555555" stroke="#555555" points="475.08,-295.32 475.04,-284.72 468.46,-293.03 475.08,-295.32"/>
</g>
<!-- pol -->
<g id="node11" class="node">
<title>pol</title>
<path fill="#eef2f5" stroke="black" d="M438.5,-212C438.5,-212 265,-212 265,-212 259,-212 253,-206 253,-200 253,-200 253,-186 253,-186 253,-180 259,-174 265,-174 265,-174 438.5,-174 438.5,-174 444.5,-174 450.5,-180 450.5,-186 450.5,-186 450.5,-200 450.5,-200 450.5,-206 444.5,-212 438.5,-212"/>
<text xml:space="preserve" text-anchor="middle" x="351.75" y="-197.55" font-family="Segoe UI" font-size="11.00">PatchPolicy</text>
<text xml:space="preserve" text-anchor="middle" x="351.75" y="-182.55" font-family="Segoe UI" font-size="11.00">political stricter; weak =&gt; uncertainty</text>
</g>
<!-- propose&#45;&gt;pol -->
<g id="edge10" class="edge">
<title>propose&#45;&gt;pol</title>
<path fill="none" stroke="#555555" d="M356.86,-300.56C355.89,-280.22 354.31,-247.23 353.16,-223.34"/>
<polygon fill="#555555" stroke="#555555" points="356.67,-223.45 352.69,-213.63 349.68,-223.78 356.67,-223.45"/>
</g>
<!-- applic -->
<g id="node12" class="node">
<title>applic</title>
<path fill="#eef2f5" stroke="black" d="M463.38,-137C463.38,-137 370.12,-137 370.12,-137 364.12,-137 358.12,-131 358.12,-125 358.12,-125 358.12,-113 358.12,-113 358.12,-107 364.12,-101 370.12,-101 370.12,-101 463.38,-101 463.38,-101 469.38,-101 475.38,-107 475.38,-113 475.38,-113 475.38,-125 475.38,-125 475.38,-131 469.38,-137 463.38,-137"/>
<text xml:space="preserve" text-anchor="middle" x="416.75" y="-116.05" font-family="Segoe UI" font-size="11.00">StatePatchApplicator</text>
</g>
<!-- derive&#45;&gt;applic -->
<g id="edge12" class="edge">
<title>derive&#45;&gt;applic</title>
<path fill="none" stroke="#555555" d="M478.8,-229.56C475.02,-213.04 468.87,-191.54 459.75,-174 454.63,-164.16 447.6,-154.38 440.7,-145.9"/>
<polygon fill="#555555" stroke="#555555" points="443.49,-143.78 434.35,-138.42 438.15,-148.31 443.49,-143.78"/>
</g>
<!-- pol&#45;&gt;applic -->
<g id="edge11" class="edge">
<title>pol&#45;&gt;applic</title>
<path fill="none" stroke="#555555" d="M368.15,-173.83C375.79,-165.37 385.02,-155.15 393.37,-145.9"/>
<polygon fill="#555555" stroke="#555555" points="395.91,-148.31 400.01,-138.54 390.71,-143.62 395.91,-148.31"/>
</g>
<!-- per -->
<g id="node13" class="node">
<title>per</title>
<path fill="#d9d9d9" stroke="black" d="M343.75,-40.85C343.75,-42.66 315.96,-44.12 281.75,-44.12 247.54,-44.12 219.75,-42.66 219.75,-40.85 219.75,-40.85 219.75,-11.4 219.75,-11.4 219.75,-9.59 247.54,-8.12 281.75,-8.12 315.96,-8.12 343.75,-9.59 343.75,-11.4 343.75,-11.4 343.75,-40.85 343.75,-40.85"/>
<path fill="none" stroke="black" d="M343.75,-40.85C343.75,-39.05 315.96,-37.58 281.75,-37.58 247.54,-37.58 219.75,-39.05 219.75,-40.85"/>
<text xml:space="preserve" text-anchor="middle" x="281.75" y="-23.18" font-family="Segoe UI" font-size="11.00">bot_personality_states</text>
</g>
<!-- applic&#45;&gt;per -->
<g id="edge13" class="edge">
<title>applic&#45;&gt;per</title>
<path fill="none" stroke="#555555" d="M391.04,-100.69C370.02,-86.54 340.09,-66.4 316.86,-50.76"/>
<polygon fill="#555555" stroke="#555555" points="318.87,-47.89 308.62,-45.21 314.96,-53.7 318.87,-47.89"/>
</g>
<!-- polst -->
<g id="node14" class="node">
<title>polst</title>
<path fill="#d9d9d9" stroke="black" d="M471.62,-40.85C471.62,-42.66 447.03,-44.12 416.75,-44.12 386.47,-44.12 361.88,-42.66 361.88,-40.85 361.88,-40.85 361.88,-11.4 361.88,-11.4 361.88,-9.59 386.47,-8.12 416.75,-8.12 447.03,-8.12 471.62,-9.59 471.62,-11.4 471.62,-11.4 471.62,-40.85 471.62,-40.85"/>
<path fill="none" stroke="black" d="M471.62,-40.85C471.62,-39.05 447.03,-37.58 416.75,-37.58 386.47,-37.58 361.88,-39.05 361.88,-40.85"/>
<text xml:space="preserve" text-anchor="middle" x="416.75" y="-23.18" font-family="Segoe UI" font-size="11.00">bot_political_states</text>
</g>
<!-- applic&#45;&gt;polst -->
<g id="edge14" class="edge">
<title>applic&#45;&gt;polst</title>
<path fill="none" stroke="#555555" d="M416.75,-100.91C416.75,-88.17 416.75,-70.48 416.75,-55.62"/>
<polygon fill="#555555" stroke="#555555" points="420.25,-55.96 416.75,-45.96 413.25,-55.96 420.25,-55.96"/>
</g>
<!-- usp -->
<g id="node15" class="node">
<title>usp</title>
<path fill="#d9d9d9" stroke="black" d="M619.75,-47.5C619.75,-50.12 590.62,-52.25 554.75,-52.25 518.88,-52.25 489.75,-50.12 489.75,-47.5 489.75,-47.5 489.75,-4.75 489.75,-4.75 489.75,-2.13 518.88,0 554.75,0 590.62,0 619.75,-2.13 619.75,-4.75 619.75,-4.75 619.75,-47.5 619.75,-47.5"/>
<path fill="none" stroke="black" d="M619.75,-47.5C619.75,-44.88 590.62,-42.75 554.75,-42.75 518.88,-42.75 489.75,-44.88 489.75,-47.5"/>
<text xml:space="preserve" text-anchor="middle" x="554.75" y="-30.68" font-family="Segoe UI" font-size="11.00">user_social_profiles</text>
<text xml:space="preserve" text-anchor="middle" x="554.75" y="-15.68" font-family="Segoe UI" font-size="11.00">(descriptive fields only)</text>
</g>
<!-- applic&#45;&gt;usp -->
<g id="edge15" class="edge">
<title>applic&#45;&gt;usp</title>
<path fill="none" stroke="#555555" stroke-dasharray="5,2" d="M443.03,-100.69C461,-88.86 485.35,-72.83 506.72,-58.75"/>
<polygon fill="#555555" stroke="#555555" points="508.61,-61.7 515.04,-53.27 504.76,-55.85 508.61,-61.7"/>
<text xml:space="preserve" text-anchor="middle" x="503.38" y="-74.45" font-family="Segoe UI" font-size="9.00">re&#45;derive</text>
</g>
</g>
</svg>
