<?xml version="1.0" encoding="UTF-8" standalone="no"?>
<!DOCTYPE svg PUBLIC "-//W3C//DTD SVG 1.1//EN"
 "http://www.w3.org/Graphics/SVG/1.1/DTD/svg11.dtd">
<!-- Generated by graphviz version 13.1.2 (20250808.2320)
 -->
<!-- Title: ownership Pages: 1 -->
<svg width="924pt" height="319pt"
 viewBox="0.00 0.00 924.00 319.00" xmlns="http://www.w3.org/2000/svg" xmlns:xlink="http://www.w3.org/1999/xlink">
<g id="graph0" class="graph" transform="scale(1 1) rotate(0) translate(4 314.5)">
<title>ownership</title>
<polygon fill="white" stroke="none" points="-4,4 -4,-314.5 920,-314.5 920,4 -4,4"/>
<text xml:space="preserve" text-anchor="middle" x="458" y="-291.3" font-family="Segoe UI" font-size="16.00">AI Behavior — State ownership (who writes what)</text>
<g id="clust1" class="cluster">
<title>cluster_live</title>
<path fill="#eafbe7" stroke="black" d="M65,-147C65,-147 257.5,-147 257.5,-147 263.5,-147 269.5,-153 269.5,-159 269.5,-159 269.5,-260 269.5,-260 269.5,-266 263.5,-272 257.5,-272 257.5,-272 65,-272 65,-272 59,-272 53,-266 53,-260 53,-260 53,-159 53,-159 53,-153 59,-147 65,-147"/>
<text xml:space="preserve" text-anchor="middle" x="161.25" y="-256.6" font-family="Segoe UI" font-size="12.00">Live lane — decideBehavior</text>
</g>
<g id="clust2" class="cluster">
<title>cluster_evo</title>
<path fill="#fdf2e3" stroke="black" d="M20,-30C20,-30 302.5,-30 302.5,-30 308.5,-30 314.5,-36 314.5,-42 314.5,-42 314.5,-127 314.5,-127 314.5,-133 308.5,-139 302.5,-139 302.5,-139 20,-139 20,-139 14,-139 8,-133 8,-127 8,-127 8,-42 8,-42 8,-36 14,-30 20,-30"/>
<text xml:space="preserve" text-anchor="middle" x="161.25" y="-123.6" font-family="Segoe UI" font-size="12.00">Background — state&#45;evolution pass</text>
</g>
<!-- lp -->
<g id="node1" class="node">
<title>lp</title>
<path fill="#ffffff" stroke="black" d="M249.5,-238.5C249.5,-238.5 73,-238.5 73,-238.5 67,-238.5 61,-232.5 61,-226.5 61,-226.5 61,-167.5 61,-167.5 61,-161.5 67,-155.5 73,-155.5 73,-155.5 249.5,-155.5 249.5,-155.5 255.5,-155.5 261.5,-161.5 261.5,-167.5 261.5,-167.5 261.5,-226.5 261.5,-226.5 261.5,-232.5 255.5,-238.5 249.5,-238.5"/>
<text xml:space="preserve" text-anchor="middle" x="161.25" y="-224.05" font-family="Segoe UI" font-size="11.00">LiveStatePatch</text>
<text xml:space="preserve" text-anchor="middle" x="161.25" y="-209.05" font-family="Segoe UI" font-size="11.00">user.adjust_affinity · user.add_label</text>
<text xml:space="preserve" text-anchor="middle" x="161.25" y="-194.05" font-family="Segoe UI" font-size="11.00">user.add_pattern · user.add_grudge</text>
<text xml:space="preserve" text-anchor="middle" x="161.25" y="-179.05" font-family="Segoe UI" font-size="11.00">user.contest_profile_signal</text>
<text xml:space="preserve" text-anchor="middle" x="161.25" y="-164.05" font-family="Segoe UI" font-size="11.00">truth.add / reinforce / contest / revise</text>
</g>
<!-- usp -->
<g id="node3" class="node">
<title>usp</title>
<path fill="#d9d9d9" stroke="black" d="M618,-156.38C618,-159 576.93,-161.12 526.38,-161.12 475.82,-161.12 434.75,-159 434.75,-156.38 434.75,-156.38 434.75,-113.62 434.75,-113.62 434.75,-111 475.82,-108.88 526.38,-108.88 576.93,-108.88 618,-111 618,-113.62 618,-113.62 618,-156.38 618,-156.38"/>
<path fill="none" stroke="black" d="M618,-156.38C618,-153.75 576.93,-151.62 526.38,-151.62 475.82,-151.62 434.75,-153.75 434.75,-156.38"/>
<text xml:space="preserve" text-anchor="middle" x="526.38" y="-139.55" font-family="Segoe UI" font-size="11.00">user_social_profiles</text>
<text xml:space="preserve" text-anchor="middle" x="526.38" y="-124.55" font-family="Segoe UI" font-size="11.00">affinity · labels · patterns · grudges</text>
</g>
<!-- lp&#45;&gt;usp -->
<g id="edge1" class="edge">
<title>lp&#45;&gt;usp</title>
<path fill="none" stroke="#38761d" stroke-width="1.6" d="M261.96,-179.98C311.71,-171.48 371.83,-161.22 422.07,-152.64"/>
<polygon fill="#38761d" stroke="#38761d" stroke-width="1.6" points="422.63,-156.09 431.9,-150.96 421.45,-149.19 422.63,-156.09"/>
</g>
<!-- tr -->
<g id="node4" class="node">
<title>tr</title>
<path fill="#d9d9d9" stroke="black" d="M559.12,-211.73C559.12,-213.53 544.45,-215 526.38,-215 508.3,-215 493.62,-213.53 493.62,-211.73 493.62,-211.73 493.62,-182.27 493.62,-182.27 493.62,-180.47 508.3,-179 526.38,-179 544.45,-179 559.12,-180.47 559.12,-182.27 559.12,-182.27 559.12,-211.73 559.12,-211.73"/>
<path fill="none" stroke="black" d="M559.12,-211.73C559.12,-209.92 544.45,-208.45 526.38,-208.45 508.3,-208.45 493.62,-209.92 493.62,-211.73"/>
<text xml:space="preserve" text-anchor="middle" x="526.38" y="-194.05" font-family="Segoe UI" font-size="11.00">bot_truths</text>
</g>
<!-- lp&#45;&gt;tr -->
<g id="edge2" class="edge">
<title>lp&#45;&gt;tr</title>
<path fill="none" stroke="#38761d" stroke-width="1.6" d="M261.96,-197C333.68,-197 426.96,-197 481.1,-197"/>
<polygon fill="#38761d" stroke="#38761d" stroke-width="1.6" points="480.92,-200.5 490.92,-197 480.92,-193.5 480.92,-200.5"/>
</g>
<!-- ep -->
<g id="node2" class="node">
<title>ep</title>
<path fill="#ffffff" stroke="black" d="M294.5,-106C294.5,-106 28,-106 28,-106 22,-106 16,-100 16,-94 16,-94 16,-50 16,-50 16,-44 22,-38 28,-38 28,-38 294.5,-38 294.5,-38 300.5,-38 306.5,-44 306.5,-50 306.5,-50 306.5,-94 306.5,-94 306.5,-100 300.5,-106 294.5,-106"/>
<text xml:space="preserve" text-anchor="middle" x="161.25" y="-91.55" font-family="Segoe UI" font-size="11.00">EvolutionPatch</text>
<text xml:space="preserve" text-anchor="middle" x="161.25" y="-76.55" font-family="Segoe UI" font-size="11.00">personality.add_signal</text>
<text xml:space="preserve" text-anchor="middle" x="161.25" y="-61.55" font-family="Segoe UI" font-size="11.00">politics.add_position / adjust_position / add_uncertainty</text>
<text xml:space="preserve" text-anchor="middle" x="161.25" y="-46.55" font-family="Segoe UI" font-size="11.00">+ snapshot derivation</text>
</g>
<!-- ep&#45;&gt;usp -->
<g id="edge5" class="edge">
<title>ep&#45;&gt;usp</title>
<path fill="none" stroke="#b45f06" stroke-dasharray="5,2" d="M306.81,-97.08C345.79,-103.84 387.16,-111.02 423.29,-117.29"/>
<polygon fill="#b45f06" stroke="#b45f06" points="422.38,-120.68 432.83,-118.94 423.58,-113.79 422.38,-120.68"/>
<text xml:space="preserve" text-anchor="middle" x="370.62" y="-118.82" font-family="Segoe UI" font-size="9.00">derive descriptive fields</text>
</g>
<!-- per -->
<g id="node5" class="node">
<title>per</title>
<path fill="#d9d9d9" stroke="black" d="M588.38,-86.73C588.38,-88.53 560.59,-90 526.38,-90 492.16,-90 464.38,-88.53 464.38,-86.73 464.38,-86.73 464.38,-57.27 464.38,-57.27 464.38,-55.47 492.16,-54 526.38,-54 560.59,-54 588.38,-55.47 588.38,-57.27 588.38,-57.27 588.38,-86.73 588.38,-86.73"/>
<path fill="none" stroke="black" d="M588.38,-86.73C588.38,-84.92 560.59,-83.45 526.38,-83.45 492.16,-83.45 464.38,-84.92 464.38,-86.73"/>
<text xml:space="preserve" text-anchor="middle" x="526.38" y="-69.05" font-family="Segoe UI" font-size="11.00">bot_personality_states</text>
</g>
<!-- ep&#45;&gt;per -->
<g id="edge3" class="edge">
<title>ep&#45;&gt;per</title>
<path fill="none" stroke="#b45f06" stroke-width="1.6" d="M306.81,-72C356.57,-72 410.19,-72 451.88,-72"/>
<polygon fill="#b45f06" stroke="#b45f06" stroke-width="1.6" points="451.71,-75.5 461.71,-72 451.71,-68.5 451.71,-75.5"/>
</g>
<!-- pol -->
<g id="node6" class="node">
<title>pol</title>
<path fill="#d9d9d9" stroke="black" d="M581.25,-32.73C581.25,-34.53 556.65,-36 526.38,-36 496.1,-36 471.5,-34.53 471.5,-32.73 471.5,-32.73 471.5,-3.27 471.5,-3.27 471.5,-1.47 496.1,0 526.38,0 556.65,0 581.25,-1.47 581.25,-3.27 581.25,-3.27 581.25,-32.73 581.25,-32.73"/>
<path fill="none" stroke="black" d="M581.25,-32.73C581.25,-30.92 556.65,-29.45 526.38,-29.45 496.1,-29.45 471.5,-30.92 471.5,-32.73"/>
<text xml:space="preserve" text-anchor="middle" x="526.38" y="-15.05" font-family="Segoe UI" font-size="11.00">bot_political_states</text>
</g>
<!-- ep&#45;&gt;pol -->
<g id="edge4" class="edge">
<title>ep&#45;&gt;pol</title>
<path fill="none" stroke="#b45f06" stroke-width="1.6" d="M306.81,-50.5C359.55,-42.66 416.65,-34.17 459.25,-27.83"/>
<polygon fill="#b45f06" stroke="#b45f06" stroke-width="1.6" points="459.65,-31.31 469.03,-26.38 458.63,-24.39 459.65,-31.31"/>
</g>
<!-- derived -->
<g id="node7" class="node">
<title>derived</title>
<polygon fill="#fce5cd" stroke="black" points="910,-154 738.75,-154 738.75,-116 916,-116 916,-148 910,-154"/>
<polyline fill="none" stroke="black" points="910,-154 910,-148"/>
<polyline fill="none" stroke="black" points="916,-148 910,-148"/>
<text xml:space="preserve" text-anchor="middle" x="827.38" y="-139.55" font-family="Segoe UI" font-size="11.00">trustLevel / preferredDistance</text>
<text xml:space="preserve" text-anchor="middle" x="827.38" y="-124.55" font-family="Segoe UI" font-size="11.00">(runtime&#45;derived, never patched)</text>
</g>
<!-- usp&#45;&gt;derived -->
<g id="edge6" class="edge">
<title>usp&#45;&gt;derived</title>
<path fill="none" stroke="#555555" stroke-dasharray="5,2" d="M618.3,-135C652.72,-135 692.06,-135 727.2,-135"/>
<polygon fill="#555555" stroke="#555555" points="726.93,-138.5 736.93,-135 726.93,-131.5 726.93,-138.5"/>
<text xml:space="preserve" text-anchor="middle" x="678.38" y="-139.2" font-family="Segoe UI" font-size="9.00">applicator recompute</text>
</g>
</g>
</svg>
